HIERARCHY
ROOT Hips
{
	OFFSET 0.000000 0.000000 0.000000
	CHANNELS 6 Xposition Yposition Zposition Zrotation Yrotation Xrotation 
	JOINT LeftUpLeg_virtual
	{
		OFFSET 0.000000 0.000000 0.000000
		CHANNELS 3 Zrotation Yrotation Xrotation
		JOINT LeftUpLeg
		{
			OFFSET 10.205400 -3.823500 0.155100
			CHANNELS 3 Zrotation Yrotation Xrotation
			JOINT LeftLeg
			{
				OFFSET 0.708757 -12.982077 0.567790
				CHANNELS 3 Zrotation Yrotation Xrotation
				JOINT LeftFoot
				{
					OFFSET -0.708756 -10.717838 -2.184338
					CHANNELS 3 Zrotation Yrotation Xrotation
					JOINT LeftToeBase
					{
						OFFSET 0.108149 -7.191104 7.560241
						CHANNELS 3 Zrotation Yrotation Xrotation
						End Site
						{
							OFFSET 0.000000 0.000000 0.000000
						}
					}
				}
			}
		}
	}
	JOINT RightUpLeg_virtual
	{
		OFFSET 0.000000 0.000000 0.000000
		CHANNELS 3 Zrotation Yrotation Xrotation
		JOINT RightUpLeg
		{
			OFFSET -10.205400 -3.823500 0.005500
			CHANNELS 3 Zrotation Yrotation Xrotation
			JOINT RightLeg
			{
				OFFSET -0.708756 -12.982134 0.610632
				CHANNELS 3 Zrotation Yrotation Xrotation
				JOINT RightFoot
				{
					OFFSET 0.708754 -10.717769 -1.945823
					CHANNELS 3 Zrotation Yrotation Xrotation
					JOINT RightToeBase
					{
						OFFSET -0.108140 -7.191069 7.372968
						CHANNELS 3 Zrotation Yrotation Xrotation
						End Site
						{
							OFFSET 0.000000 0.000000 0.000000
						}
					}
				}
			}
		}
	}
	JOINT Spine_virtual
	{
		OFFSET 0.000000 0.000000 0.000000
		CHANNELS 3 Zrotation Yrotation Xrotation
		JOINT Spine
		{
			OFFSET 0.000000 6.876099 0.125700
			CHANNELS 3 Zrotation Yrotation Xrotation
			JOINT Spine1
			{
				OFFSET 0.000000 8.022060 0.146608
				CHANNELS 3 Zrotation Yrotation Xrotation
				JOINT Spine2
				{
					OFFSET 0.000000 9.168068 0.167552
					CHANNELS 3 Zrotation Yrotation Xrotation
					JOINT Neck_virtual
					{
						OFFSET 0.000000 0.000000 0.000000
						CHANNELS 3 Zrotation Yrotation Xrotation
						JOINT Neck
						{
							OFFSET 0.000000 10.314075 0.188496
							CHANNELS 3 Zrotation Yrotation Xrotation
							JOINT Head
							{
								OFFSET 0.000000 7.643700 -2.377400
								CHANNELS 3 Zrotation Yrotation Xrotation
								End Site
								{
									OFFSET 0.000000 0.000000 0.000000
								}
							}
						}
					}
					JOINT LeftShoulder_virtual
					{
						OFFSET 0.000000 0.000000 0.000000
						CHANNELS 3 Zrotation Yrotation Xrotation
						JOINT LeftShoulder
						{
							OFFSET 4.392200 8.824978 0.174984
							CHANNELS 3 Zrotation Yrotation Xrotation
							JOINT LeftArm
							{
								OFFSET 8.771219 -2.981674 -0.026999
								CHANNELS 3 Zrotation Yrotation Xrotation
								JOINT LeftForeArm
								{
									OFFSET 8.512804 0.000000 -0.000000
									CHANNELS 3 Zrotation Yrotation Xrotation
									JOINT LeftHand
									{
										OFFSET 18.484802 0.000000 -0.000000
										CHANNELS 3 Zrotation Yrotation Xrotation
										End Site
										{
											OFFSET 0.000000 0.000000 0.000000
										}
									}
								}
							}
						}
					}
					JOINT RightShoulder_virtual
					{
						OFFSET 0.000000 0.000000 0.000000
						CHANNELS 3 Zrotation Yrotation Xrotation
						JOINT RightShoulder
						{
							OFFSET -4.392200 8.824993 0.141379
							CHANNELS 3 Zrotation Yrotation Xrotation
							JOINT RightArm
							{
								OFFSET -8.771282 -2.981682 -0.094208
								CHANNELS 3 Zrotation Yrotation Xrotation
								JOINT RightForeArm
								{
									OFFSET -8.494598 0.000000 0.000000
									CHANNELS 3 Zrotation Yrotation Xrotation
									JOINT RightHand
									{
										OFFSET -18.483803 0.000000 0.000001
										CHANNELS 3 Zrotation Yrotation Xrotation
										End Site
										{
											OFFSET 0.000000 0.000000 0.000000
										}
									}
								}
							}
						}
					}
				}
			}
		}
	}
}
MOTION
Frames: 8
Frame Time: 0.033333
7.457254 36.284367 -12.852071 179.975034 3.496405 -179.923780 -2.499920 -1.795915 9.915578 -5.521072 -4.962011 -17.799442 9.622082 8.956127 16.764149 -8.806617 0.898102 9.082225 0.000000 0.000000 0.000000 2.176659 0.042570 8.923683 5.350083 -1.518930 -5.691924 -7.319842 -0.732408 12.864658 8.649519 8.551504 6.249530 0.000000 0.000000 0.000000 1.296151 1.459194 -1.475675 -4.094593 0.615981 -7.701819 1.551013 -4.301114 4.518352 0.014397 -0.018771 0.002006 1.287285 -2.538829 6.173268 -1.463483 3.011008 7.889160 0.000000 0.000000 0.000000 2.522074 -1.644742 3.231487 -0.152913 -3.250337 -4.985002 -19.657681 31.871954 -27.572243 -6.068835 -34.027278 -2.346630 0.000000 0.000000 0.000000 -0.728859 -0.980511 2.880699 11.709736 -0.102989 -8.313436 27.747186 -33.799546 -36.351926 0.290547 34.007645 -3.532425 0.000000 0.000000 0.000000 
7.462011 36.295055 -12.852843 179.984596 3.575520 -179.796971 -2.509177 -1.750913 9.918113 -5.448086 -4.984310 -17.916554 9.599534 9.114237 16.679810 -8.847576 0.744018 9.013327 0.000000 0.000000 0.000000 2.227656 0.210203 9.081906 5.451828 -1.851682 -5.704059 -7.101217 -1.020144 13.047687 8.772686 8.664081 6.290495 0.000000 0.000000 0.000000 1.266786 1.502254 -1.536076 -4.076234 0.637533 -7.726055 1.559164 -4.260093 4.541168 -0.026078 0.008212 -0.013375 1.306848 -2.659768 6.205922 -1.433001 2.932301 7.898572 0.000000 0.000000 0.000000 2.573109 -1.627319 3.257409 -0.162038 -3.377420 -5.023647 -19.711308 31.986923 -27.703597 -5.982462 -33.985123 -2.338406 0.000000 0.000000 0.000000 -0.670621 -0.973487 2.881427 11.782625 -0.105174 -8.209163 27.737084 -33.822164 -36.381843 0.183477 33.959742 -3.602638 0.000000 0.000000 0.000000 
7.468607 36.304195 -12.838399 179.920747 3.620456 -179.921226 -2.565737 -1.832584 10.067331 -5.425641 -5.043693 -17.838301 9.593662 9.429179 16.463276 -8.833879 0.634642 9.129669 0.000000 0.000000 0.000000 2.187700 0.070057 9.257923 5.361459 -1.768646 -5.789934 -7.042259 -0.891502 12.938630 8.721609 8.645799 6.317588 0.000000 0.000000 0.000000 1.220518 1.491517 -1.358818 -4.090417 0.643371 -7.660968 1.562019 -4.231837 4.514450 0.025043 0.004276 0.032929 1.275314 -2.589885 6.143142 -1.406080 2.800266 7.972403 0.000000 0.000000 0.000000 2.517316 -1.619176 3.229350 -0.165571 -3.567351 -4.968572 -19.930347 32.066997 -27.746762 -5.872453 -33.923869 -2.296063 0.000000 0.000000 0.000000 -0.720928 -0.939841 2.793418 11.917971 -0.190338 -8.176415 27.584523 -33.906080 -36.297954 0.231600 33.932762 -3.575727 0.000000 0.000000 0.000000 
7.490942 36.315922 -12.817100 179.907647 3.909368 -179.875354 -2.546750 -1.736959 10.104961 -5.418012 -4.964401 -17.814832 9.620858 9.400925 16.233953 -8.720239 0.552432 9.263032 0.000000 0.000000 0.000000 2.236847 0.110931 9.272828 5.337473 -1.549244 -5.943161 -7.001538 -0.739335 12.826965 8.601564 8.616337 6.343640 0.000000 0.000000 0.000000 1.243732 1.492439 -1.366845 -4.076890 0.678651 -7.654114 1.546664 -4.172894 4.538916 -0.009421 0.012871 0.066236 1.295648 -2.565281 6.116154 -1.355836 2.642867 8.102116 0.000000 0.000000 0.000000 2.520251 -1.502679 3.154966 -0.208148 -3.718711 -4.878197 -20.206816 32.059474 -27.522380 -5.740359 -33.857644 -2.140060 0.000000 0.000000 0.000000 -0.720805 -0.871255 2.766326 12.147853 -0.227392 -8.101638 27.393510 -33.865615 -36.039230 0.220205 33.816174 -3.564565 0.000000 0.000000 0.000000 
7.526413 36.327259 -12.779377 179.938588 4.083898 -179.888086 -2.488196 -1.792283 10.081690 -5.384942 -4.997970 -17.713286 9.576291 9.342148 16.094757 -8.667595 0.609230 9.352588 0.000000 0.000000 0.000000 2.329088 -0.011449 9.247630 5.338884 -1.223088 -5.995281 -6.977266 -0.541390 12.711311 8.423776 8.543203 6.364895 0.000000 0.000000 0.000000 1.304791 1.485016 -1.303129 -4.055133 0.711456 -7.599438 1.555479 -4.112836 4.508157 0.011804 0.016982 0.002255 1.253773 -2.393478 6.150954 -1.408435 2.386962 8.189843 0.000000 0.000000 0.000000 2.489979 -1.427820 3.203423 -0.241343 -3.966759 -4.765269 -20.651014 31.945450 -27.184629 -5.521455 -33.844462 -2.009446 0.000000 0.000000 0.000000 -0.792520 -0.791831 2.850767 12.369497 -0.373579 -8.010461 27.339994 -33.768530 -35.691003 0.160859 33.711529 -3.591556 0.000000 0.000000 0.000000 
7.580759 36.342384 -12.725770 -179.988667 4.096114 -179.861079 -2.371077 -2.016614 10.034395 -5.258295 -5.196497 -17.660620 9.706969 9.689322 16.054903 -8.520193 0.331608 9.540629 0.000000 0.000000 0.000000 2.456878 -0.291663 9.127189 5.375050 -0.865872 -6.022825 -6.959135 -0.378389 12.561561 8.203754 8.444319 6.436714 0.000000 0.000000 0.000000 1.440171 1.411498 -1.287710 -4.028323 0.732299 -7.553049 1.546839 -4.078805 4.511553 0.026513 -0.010312 -0.024341 1.236806 -2.220178 6.167860 -1.470713 2.150499 8.318609 0.000000 0.000000 0.000000 2.421989 -1.345567 3.214109 -0.323927 -4.243357 -4.547957 -21.352481 31.845368 -26.571944 -5.291951 -34.080766 -1.873208 0.000000 0.000000 0.000000 -0.832595 -0.674462 2.863626 12.645768 -0.542818 -7.791208 27.270949 -33.656222 -35.187922 0.046817 33.587284 -3.679215 0.000000 0.000000 0.000000 
7.660357 36.353111 -12.669898 179.930351 4.122242 -179.959393 -2.383916 -2.166378 10.030040 -5.171284 -5.328231 -17.659502 9.780836 9.692307 15.995982 -8.457180 0.260053 9.716164 0.000000 0.000000 0.000000 2.446161 -0.534932 9.076150 5.442495 -0.567709 -6.005492 -6.940070 -0.258593 12.551779 7.974288 8.309748 6.488389 0.000000 0.000000 0.000000 1.491393 1.300775 -1.164987 -4.087447 0.817366 -7.465278 1.494750 -3.985593 4.540870 -0.026654 -0.006819 0.030812 1.271063 -2.325739 6.070694 -1.609165 1.912697 8.469505 0.000000 0.000000 0.000000 2.511457 -1.223588 3.139424 -0.419233 -4.508610 -4.401579 -22.261058 31.804147 -25.567930 -5.126791 -34.661147 -1.609975 0.000000 0.000000 0.000000 -0.768942 -0.590863 2.852588 12.922186 -0.751971 -7.717094 27.235731 -33.599350 -34.423682 -0.010226 33.565937 -3.650160 0.000000 0.000000 0.000000 
7.766799 36.354439 -12.616540 179.934025 4.042986 -179.896760 -2.245692 -2.307904 10.062639 -5.072075 -5.407080 -17.819434 9.857239 9.542785 15.968410 -8.489815 0.212458 9.958357 0.000000 0.000000 0.000000 2.548515 -0.661544 8.975335 5.571184 -0.289448 -6.069867 -6.942386 -0.345614 12.615199 7.728899 8.174030 6.428103 0.000000 0.000000 0.000000 1.574041 1.201925 -1.097875 -4.103034 0.965051 -7.502159 1.503981 -3.869422 4.579645 0.000098 0.014276 -0.057420 1.244210 -2.136651 6.187313 -1.880945 1.652132 8.640445 0.000000 0.000000 0.000000 2.505028 -1.125689 3.256228 -0.590198 -4.783174 -4.197639 -23.421866 31.902017 -23.926569 -4.986973 -35.796786 -1.334460 0.000000 0.000000 0.000000 -0.802349 -0.503024 2.966578 13.184556 -1.054324 -7.592031 27.392860 -33.705310 -33.550740 -0.077223 33.831669 -3.685185 0.000000 0.000000 0.000000 
